<svg width="107" height="513" viewBox="0 0 107 513" fill="none" xmlns="http://www.w3.org/2000/svg">
<mask id="path-1-inside-1_152_366" fill="white">
<path d="M94.4567 12C94.4567 12 95.6956 58.2 95.6956 102.064C95.6956 134.963 85.7033 155.623 71.4633 163.898L71.78 479.654C71.78 491.928 61.8311 501.877 49.5578 501.877C37.2844 501.877 27.3355 491.928 27.3355 479.654L36.3445 163.962C22.0445 155.731 12 135.049 12 102.064C12 58.2 13.2389 12 13.2389 12"/>
</mask>
<path d="M94.4567 12C94.4567 12 95.6956 58.2 95.6956 102.064C95.6956 134.963 85.7033 155.623 71.4633 163.898L71.78 479.654C71.78 491.928 61.8311 501.877 49.5578 501.877C37.2844 501.877 27.3355 491.928 27.3355 479.654L36.3445 163.962C22.0445 155.731 12 135.049 12 102.064C12 58.2 13.2389 12 13.2389 12" fill="#52A295"/>
<path d="M71.4633 163.898L70.9609 163.033L70.4628 163.323L70.4633 163.899L71.4633 163.898ZM71.78 479.654L72.78 479.654L72.78 479.653L71.78 479.654ZM27.3355 479.654L26.336 479.626L26.3355 479.64V479.654H27.3355ZM36.3445 163.962L37.3441 163.991L37.3611 163.394L36.8433 163.096L36.3445 163.962ZM94.4567 12C93.457 12.0268 93.457 12.027 93.457 12.0273C93.4571 12.0277 93.4571 12.0282 93.4571 12.0289C93.4571 12.0303 93.4572 12.0324 93.4573 12.0351C93.4574 12.0407 93.4576 12.0491 93.4579 12.0603C93.4585 12.0826 93.4594 12.116 93.4606 12.1603C93.4629 12.2489 93.4664 12.3811 93.4709 12.5555C93.48 12.9043 93.4933 13.4218 93.5102 14.0959C93.5441 15.4443 93.5925 17.4197 93.6505 19.9273C93.7666 24.9425 93.9215 32.0866 94.0763 40.6012C94.3859 57.6311 94.6956 80.1406 94.6956 102.064H96.6956C96.6956 80.1238 96.3857 57.6011 96.0759 40.5649C95.9211 32.0464 95.7662 24.899 95.65 19.881C95.5919 17.372 95.5435 15.3953 95.5096 14.0457C95.4926 13.3709 95.4793 12.8529 95.4702 12.5036C95.4657 12.3289 95.4622 12.1964 95.4599 12.1075C95.4587 12.063 95.4578 12.0295 95.4572 12.007C95.4569 11.9958 95.4567 11.9874 95.4565 11.9817C95.4565 11.9789 95.4564 11.9768 95.4564 11.9754C95.4563 11.9746 95.4563 11.9741 95.4563 11.9737C95.4563 11.9734 95.4563 11.9732 94.4567 12ZM94.6956 102.064C94.6956 134.827 84.741 155.026 70.9609 163.033L71.9657 164.762C86.6656 156.221 96.6956 135.1 96.6956 102.064H94.6956ZM70.4633 163.899L70.78 479.655L72.78 479.653L72.4633 163.897L70.4633 163.899ZM70.78 479.654C70.78 491.375 61.2788 500.877 49.5578 500.877V502.877C62.3834 502.877 72.78 492.48 72.78 479.654H70.78ZM49.5578 500.877C37.8367 500.877 28.3355 491.375 28.3355 479.654H26.3355C26.3355 492.48 36.7322 502.877 49.5578 502.877V500.877ZM28.3351 479.683L37.3441 163.991L35.3449 163.934L26.336 479.626L28.3351 479.683ZM36.8433 163.096C23.0066 155.131 13 134.913 13 102.064H11C11 135.185 21.0823 156.331 35.8456 164.829L36.8433 163.096ZM13 102.064C13 80.1406 13.3096 57.6311 13.6193 40.6012C13.7741 32.0866 13.9289 24.9425 14.045 19.9273C14.1031 17.4197 14.1515 15.4443 14.1853 14.0959C14.2023 13.4218 14.2156 12.9043 14.2246 12.5555C14.2292 12.3811 14.2326 12.2489 14.235 12.1603C14.2362 12.116 14.237 12.0826 14.2376 12.0603C14.2379 12.0491 14.2382 12.0407 14.2383 12.0351C14.2384 12.0324 14.2384 12.0303 14.2385 12.0289C14.2385 12.0282 14.2385 12.0277 14.2385 12.0273C14.2385 12.027 14.2385 12.0268 13.2389 12C12.2392 11.9732 12.2392 11.9734 12.2392 11.9737C12.2392 11.9741 12.2392 11.9746 12.2392 11.9754C12.2391 11.9768 12.2391 11.9789 12.239 11.9817C12.2389 11.9874 12.2386 11.9958 12.2383 12.007C12.2377 12.0295 12.2369 12.063 12.2357 12.1075C12.2333 12.1964 12.2299 12.3289 12.2253 12.5036C12.2162 12.8529 12.2029 13.3709 12.186 14.0457C12.1521 15.3953 12.1037 17.372 12.0456 19.881C11.9294 24.899 11.7745 32.0464 11.6196 40.5649C11.3098 57.6011 11 80.1238 11 102.064H13Z" fill="#05353B" mask="url(#path-1-inside-1_152_366)"/>
<path d="M94.4567 12C94.4567 12 95.6956 58.2 95.6956 102.064C95.6956 134.963 85.7033 155.623 71.4633 163.898L71.78 479.654C71.78 491.928 61.8311 501.877 49.5578 501.877C37.2844 501.877 27.3355 491.928 27.3355 479.654L36.3445 163.962C22.0445 155.731 12 135.049 12 102.064C12 58.2 13.2389 12 13.2389 12" stroke="#05353B" stroke-width="22.2222" stroke-miterlimit="10" stroke-linecap="round" stroke-linejoin="round"/>
<path d="M53.8467 12V118.499" stroke="#05353B" stroke-width="22.2222" stroke-miterlimit="10" stroke-linecap="round" stroke-linejoin="round"/>
</svg>
