<svg width="80" height="525" viewBox="0 0 80 525" fill="none" xmlns="http://www.w3.org/2000/svg">
<path d="M57.8708 311.688L57.8694 311.663L57.8703 311.639L58.37 311.658C57.8703 311.639 57.8704 311.638 57.8704 311.636L57.8708 311.627L57.8722 311.589L57.878 311.44L57.9005 310.849L57.9885 308.544C58.0656 306.523 58.1786 303.557 58.3225 299.774C58.6102 292.209 59.0213 281.378 59.5146 268.317C60.5012 242.193 61.8166 207.147 63.132 171.453C65.7631 100.055 68.3933 26.0911 68.3933 15.7427C68.3933 14.4894 68.1754 13.6631 67.8402 13.1674C67.5289 12.7072 67.0868 12.4865 66.4599 12.5006C65.8 12.5155 64.9395 12.7949 63.8869 13.3834C62.8423 13.9675 61.6479 14.8337 60.3301 15.9689C55.0511 20.5166 47.9708 29.2255 40.8716 40.6735C26.6753 63.566 12.5 97.2542 12.5 130.144C12.5 163.128 17.0778 208.221 21.6589 245.086C23.9491 263.514 26.2393 279.88 27.9569 291.639C28.8157 297.518 29.5314 302.245 30.0323 305.502C30.2827 307.131 30.4795 308.392 30.6137 309.246C30.6807 309.673 30.7321 309.998 30.7668 310.216L30.806 310.463L30.8159 310.525L30.8184 310.541L30.819 310.545C30.8192 310.545 30.8192 310.546 30.3255 310.625L30.8192 310.546L30.8268 310.593L30.8253 310.641L24.9489 491.617C24.9489 491.62 24.9489 491.623 24.9489 491.625C24.9532 503.619 34.6766 513.339 46.6711 513.339C58.6634 513.339 68.3855 503.622 68.3933 491.632L57.8708 311.688Z" fill="#52A295" stroke="#05353B"/>
<path d="M12 130.144C12 64.1094 68.8933 -4.97836 68.8933 15.7427C68.8933 36.4639 58.37 311.658 58.37 311.658L68.8933 491.617C68.8933 503.891 58.9444 513.839 46.6711 513.839C34.3978 513.839 24.4489 503.891 24.4489 491.617L30.3255 310.625C30.3255 310.625 12 196.178 12 130.144Z" stroke="#05353B" stroke-width="22.2222" stroke-miterlimit="10"/>
</svg>
