<svg width="45" height="45" viewBox="0 0 45 45" fill="none" xmlns="http://www.w3.org/2000/svg">
<path d="M24.375 16.875H20.625V13.125C20.625 12.6277 20.4275 12.1508 20.0758 11.7992C19.7242 11.4475 19.2473 11.25 18.75 11.25C18.2527 11.25 17.7758 11.4475 17.4242 11.7992C17.0725 12.1508 16.875 12.6277 16.875 13.125V16.875H13.125C12.6277 16.875 12.1508 17.0725 11.7992 17.4242C11.4475 17.7758 11.25 18.2527 11.25 18.75C11.25 19.2473 11.4475 19.7242 11.7992 20.0758C12.1508 20.4275 12.6277 20.625 13.125 20.625H16.875V24.375C16.875 24.8723 17.0725 25.3492 17.4242 25.7008C17.7758 26.0525 18.2527 26.25 18.75 26.25C19.2473 26.25 19.7242 26.0525 20.0758 25.7008C20.4275 25.3492 20.625 24.8723 20.625 24.375V20.625H24.375C24.8723 20.625 25.3492 20.4275 25.7008 20.0758C26.0525 19.7242 26.25 19.2473 26.25 18.75C26.25 18.2527 26.0525 17.7758 25.7008 17.4242C25.3492 17.0725 24.8723 16.875 24.375 16.875ZM33.75 28.125V9.375C33.75 7.88316 33.1574 6.45242 32.1025 5.39752C31.0476 4.34263 29.6168 3.75 28.125 3.75H9.375C7.88316 3.75 6.45242 4.34263 5.39752 5.39752C4.34263 6.45242 3.75 7.88316 3.75 9.375V28.125C3.75 29.6168 4.34263 31.0476 5.39752 32.1025C6.45242 33.1574 7.88316 33.75 9.375 33.75H28.125C29.6168 33.75 31.0476 33.1574 32.1025 32.1025C33.1574 31.0476 33.75 29.6168 33.75 28.125ZM7.5 28.125V9.375C7.5 8.87772 7.69754 8.40081 8.04918 8.04918C8.40081 7.69754 8.87772 7.5 9.375 7.5H28.125C28.6223 7.5 29.0992 7.69754 29.4508 8.04918C29.8025 8.40081 30 8.87772 30 9.375V28.125C30 28.6223 29.8025 29.0992 29.4508 29.4508C29.0992 29.8025 28.6223 30 28.125 30H9.375C8.87772 30 8.40081 29.8025 8.04918 29.4508C7.69754 29.0992 7.5 28.6223 7.5 28.125ZM39.375 11.25C38.8777 11.25 38.4008 11.4475 38.0492 11.7992C37.6975 12.1508 37.5 12.6277 37.5 13.125V31.875C37.5 33.3668 36.9074 34.7976 35.8525 35.8525C34.7976 36.9074 33.3668 37.5 31.875 37.5H13.125C12.6277 37.5 12.1508 37.6975 11.7992 38.0492C11.4475 38.4008 11.25 38.8777 11.25 39.375C11.25 39.8723 11.4475 40.3492 11.7992 40.7008C12.1508 41.0525 12.6277 41.25 13.125 41.25H31.875C34.3614 41.25 36.746 40.2623 38.5041 38.5041C40.2623 36.746 41.25 34.3614 41.25 31.875V13.125C41.25 12.6277 41.0525 12.1508 40.7008 11.7992C40.3492 11.4475 39.8723 11.25 39.375 11.25Z" fill="#313A2D"/>
</svg>
