<svg width="160" height="65" viewBox="0 0 160 65" fill="none" xmlns="http://www.w3.org/2000/svg">
<path d="M21.3408 45.4998H18.512V33.3941C18.512 30.9536 18.0821 29.1232 17.2224 27.9029C16.3627 26.6549 15.1285 26.0309 13.52 26.0309C12.4661 26.0309 11.4123 26.3083 10.3584 26.8629C9.33227 27.3899 8.41707 28.1248 7.61281 29.0677C6.83627 29.9829 6.2816 31.0368 5.9488 32.2293V45.4998H3.12V15.1317H5.9488V28.7349C6.80854 27.1264 8.00107 25.8507 9.52641 24.9077C11.0795 23.9371 12.7296 23.4517 14.4768 23.4517C15.7248 23.4517 16.7787 23.6736 17.6384 24.1173C18.5259 24.5611 19.2331 25.2128 19.76 26.0725C20.3147 26.9045 20.7168 27.8891 20.9664 29.0261C21.216 30.1355 21.3408 31.3973 21.3408 32.8117V45.4998ZM36.7332 45.9158C35.1801 45.9158 33.7379 45.6246 32.4067 45.0422C31.0755 44.432 29.9246 43.6139 28.9539 42.5878C27.9833 41.5339 27.2206 40.3275 26.6659 38.9686C26.139 37.6096 25.8755 36.1536 25.8755 34.6005C25.8755 32.576 26.3331 30.7179 27.2483 29.0261C28.1913 27.3344 29.4809 25.9893 31.1171 24.9909C32.7534 23.9648 34.6115 23.4517 36.6916 23.4517C38.827 23.4517 40.6852 23.9648 42.266 24.9909C43.8745 26.0171 45.1364 27.376 46.0516 29.0677C46.9668 30.7317 47.4244 32.5621 47.4244 34.5589C47.4244 34.7808 47.4244 35.0027 47.4244 35.2245C47.4244 35.4187 47.4105 35.5712 47.3828 35.6821H28.8291C28.9678 37.2352 29.3977 38.6219 30.1187 39.8422C30.8675 41.0347 31.8243 41.9915 32.9891 42.7126C34.1817 43.4059 35.4713 43.7526 36.858 43.7526C38.2724 43.7526 39.6036 43.392 40.8516 42.671C42.1273 41.9499 43.0148 41.007 43.514 39.8422L45.9684 40.5078C45.5246 41.5339 44.8452 42.463 43.93 43.295C43.0148 44.127 41.9332 44.7787 40.6852 45.2502C39.4649 45.6939 38.1476 45.9158 36.7332 45.9158ZM28.7459 33.6437H44.762C44.651 32.0629 44.2212 30.6763 43.4724 29.4837C42.7513 28.2912 41.7945 27.3621 40.602 26.6965C39.4372 26.0032 38.1476 25.6565 36.7332 25.6565C35.3187 25.6565 34.0291 26.0032 32.8643 26.6965C31.6995 27.3621 30.7427 28.3051 29.9939 29.5253C29.2729 30.7179 28.8569 32.0907 28.7459 33.6437ZM62.6048 26.3221C60.7189 26.3776 59.0549 26.9045 57.6128 27.9029C56.1984 28.9013 55.2 30.2741 54.6176 32.0213V45.4998H51.7888V23.8261H54.4512V29.0261C55.2 27.5008 56.1845 26.2667 57.4048 25.3237C58.6528 24.3808 59.9701 23.8539 61.3568 23.7429C61.6341 23.7152 61.8699 23.7013 62.064 23.7013C62.2859 23.7013 62.4661 23.7152 62.6048 23.7429V26.3221ZM76.9812 45.9158C75.2894 45.9158 73.7225 45.4859 72.2804 44.6262C70.8382 43.7387 69.715 42.6294 68.9108 41.2982V45.4998H66.3732V15.1317H69.202V28.3605C70.1726 26.8907 71.3374 25.712 72.6964 24.8245C74.0553 23.9093 75.6361 23.4517 77.4388 23.4517C78.9641 23.4517 80.323 23.7707 81.5156 24.4085C82.7358 25.0464 83.7758 25.9061 84.6356 26.9877C85.4953 28.0416 86.147 29.248 86.5908 30.6069C87.0345 31.9381 87.2564 33.3109 87.2564 34.7253C87.2564 36.2507 86.9929 37.679 86.466 39.0102C85.9668 40.3414 85.2457 41.5339 84.3028 42.5878C83.3598 43.6139 82.2644 44.432 81.0164 45.0422C79.7961 45.6246 78.451 45.9158 76.9812 45.9158ZM76.3156 43.4198C77.4804 43.4198 78.562 43.184 79.5604 42.7126C80.5588 42.2411 81.4185 41.5894 82.1396 40.7574C82.8606 39.9254 83.4153 38.9963 83.8036 37.9702C84.1918 36.9163 84.386 35.8347 84.386 34.7253C84.386 33.2 84.0532 31.7717 83.3876 30.4405C82.7497 29.0816 81.8484 28 80.6836 27.1957C79.5465 26.3637 78.2014 25.9477 76.6484 25.9477C75.539 25.9477 74.499 26.1973 73.5284 26.6965C72.5854 27.1957 71.7396 27.8613 70.9908 28.6933C70.2697 29.4976 69.6734 30.3851 69.202 31.3557V38.095C69.3129 38.8438 69.6041 39.551 70.0756 40.2166C70.547 40.8544 71.1294 41.4091 71.8228 41.8806C72.5438 42.352 73.2926 42.7264 74.0692 43.0038C74.8457 43.2811 75.5945 43.4198 76.3156 43.4198ZM92.0482 45.4998V23.8261H94.877V45.4998H92.0482ZM92.0482 19.2917V15.1317H94.877V19.2917H92.0482ZM102.148 45.4998V26.0725H99.1524V23.8261H102.148V23.2437C102.148 21.4688 102.397 19.9435 102.896 18.6677C103.423 17.392 104.158 16.4213 105.101 15.7557C106.072 15.0624 107.209 14.7157 108.512 14.7157C109.372 14.7157 110.204 14.8405 111.008 15.0901C111.813 15.3397 112.506 15.6725 113.088 16.0885L112.215 18.1269C111.854 17.8219 111.383 17.5861 110.8 17.4197C110.218 17.2533 109.636 17.1701 109.053 17.1701C107.75 17.1701 106.737 17.6832 106.016 18.7093C105.323 19.7355 104.976 21.2192 104.976 23.1605V23.8261H110.967V26.0725H104.976V45.4998H102.148ZM116.087 52.1558C116.475 52.1835 116.849 52.1974 117.21 52.1974C117.571 52.2251 117.834 52.2112 118 52.1558C118.333 52.1003 118.652 51.9062 118.957 51.5734C119.262 51.2406 119.623 50.6027 120.039 49.6598C120.455 48.7168 121.037 47.3302 121.786 45.4998L112.343 23.8261H115.338L123.284 42.5878L130.605 23.8261H133.434L122.202 51.7814C122.008 52.3083 121.717 52.7936 121.328 53.2374C120.94 53.7088 120.455 54.0694 119.872 54.319C119.318 54.5963 118.624 54.7488 117.792 54.7766C117.543 54.8043 117.279 54.8043 117.002 54.7766C116.752 54.7766 116.447 54.7488 116.087 54.6934V52.1558Z" fill="#43513D"/>
<path d="M67.5197 15.8018C58.8923 24.7237 50.6897 11.793 47.6668 4.21249M67.5197 15.8018L47.6668 4.21249M67.5197 15.8018C65.3192 2.32006 53.0656 3.82564 47.6668 4.21249" stroke="#43513D" stroke-width="1.95"/>
<path d="M68.3013 16.869C65.5935 5.52062 85.3752 2.11669 88.0411 6.7812M68.3013 16.869L88.0411 6.7812M68.3013 16.869C80.098 21.9424 88.0411 10.4197 88.0411 6.7812" stroke="#43513D" stroke-width="1.95"/>
</svg>
