<svg width="45" height="45" viewBox="0 0 45 45" fill="none" xmlns="http://www.w3.org/2000/svg">
<path d="M37.5002 14.9999L26.2502 5.13745C25.2189 4.21504 23.8838 3.70508 22.5002 3.70508C21.1166 3.70508 19.7815 4.21504 18.7502 5.13745L7.50018 14.9999C6.90462 15.5326 6.42937 16.186 6.10606 16.9167C5.78276 17.6473 5.61883 18.4385 5.62518 19.2374V35.6249C5.62518 37.1168 6.21781 38.5475 7.2727 39.6024C8.32759 40.6573 9.75834 41.2499 11.2502 41.2499H33.7502C35.242 41.2499 36.6728 40.6573 37.7277 39.6024C38.7825 38.5475 39.3752 37.1168 39.3752 35.6249V19.2187C39.3789 18.4229 39.2136 17.6353 38.8904 16.9081C38.5672 16.1809 38.0934 15.5305 37.5002 14.9999ZM26.2502 37.4999H18.7502V28.1249C18.7502 27.6277 18.9477 27.1508 19.2994 26.7991C19.651 26.4475 20.1279 26.2499 20.6252 26.2499H24.3752C24.8725 26.2499 25.3494 26.4475 25.701 26.7991C26.0526 27.1508 26.2502 27.6277 26.2502 28.1249V37.4999ZM35.6252 35.6249C35.6252 36.1222 35.4276 36.5991 35.076 36.9508C34.7244 37.3024 34.2475 37.4999 33.7502 37.4999H30.0002V28.1249C30.0002 26.6331 29.4075 25.2024 28.3527 24.1475C27.2978 23.0926 25.867 22.4999 24.3752 22.4999H20.6252C19.1333 22.4999 17.7026 23.0926 16.6477 24.1475C15.5928 25.2024 15.0002 26.6331 15.0002 28.1249V37.4999H11.2502C10.7529 37.4999 10.276 37.3024 9.92435 36.9508C9.57272 36.5991 9.37518 36.1222 9.37518 35.6249V19.2187C9.37551 18.9525 9.43254 18.6894 9.54246 18.4469C9.65238 18.2044 9.81267 17.9882 10.0127 17.8124L21.2627 7.9687C21.6048 7.6681 22.0447 7.50232 22.5002 7.50232C22.9556 7.50232 23.3955 7.6681 23.7377 7.9687L34.9877 17.8124C35.1877 17.9882 35.348 18.2044 35.4579 18.4469C35.5678 18.6894 35.6248 18.9525 35.6252 19.2187V35.6249Z" fill="#313A2D"/>
</svg>
