<svg width="45" height="45" viewBox="0 0 45 45" fill="none" xmlns="http://www.w3.org/2000/svg">
<path d="M33.75 24.7125V18.75C33.7473 16.0934 32.8045 13.5234 31.0887 11.4952C29.3728 9.46703 26.9945 8.11152 24.375 7.66875V5.625C24.375 5.12772 24.1775 4.65081 23.8258 4.29917C23.4742 3.94754 22.9973 3.75 22.5 3.75C22.0027 3.75 21.5258 3.94754 21.1742 4.29917C20.8225 4.65081 20.625 5.12772 20.625 5.625V7.66875C18.0055 8.11152 15.6272 9.46703 13.9113 11.4952C12.1955 13.5234 11.2527 16.0934 11.25 18.75V24.7125C10.1558 25.0993 9.20812 25.8151 8.53676 26.7618C7.8654 27.7084 7.50326 28.8395 7.5 30V33.75C7.5 34.2473 7.69754 34.7242 8.04918 35.0758C8.40081 35.4275 8.87772 35.625 9.375 35.625H15.2625C15.6943 37.2138 16.6369 38.6164 17.9449 39.6164C19.2529 40.6163 20.8536 41.1581 22.5 41.1581C24.1464 41.1581 25.7471 40.6163 27.0551 39.6164C28.3631 38.6164 29.3057 37.2138 29.7375 35.625H35.625C36.1223 35.625 36.5992 35.4275 36.9508 35.0758C37.3025 34.7242 37.5 34.2473 37.5 33.75V30C37.4967 28.8395 37.1346 27.7084 36.4632 26.7618C35.7919 25.8151 34.8442 25.0993 33.75 24.7125ZM15 18.75C15 16.7609 15.7902 14.8532 17.1967 13.4467C18.6032 12.0402 20.5109 11.25 22.5 11.25C24.4891 11.25 26.3968 12.0402 27.8033 13.4467C29.2098 14.8532 30 16.7609 30 18.75V24.375H15V18.75ZM22.5 37.5C21.8456 37.496 21.2036 37.3209 20.6378 36.992C20.072 36.663 19.6022 36.1918 19.275 35.625H25.725C25.3978 36.1918 24.928 36.663 24.3622 36.992C23.7964 37.3209 23.1544 37.496 22.5 37.5ZM33.75 31.875H11.25V30C11.25 29.5027 11.4475 29.0258 11.7992 28.6742C12.1508 28.3225 12.6277 28.125 13.125 28.125H31.875C32.3723 28.125 32.8492 28.3225 33.2008 28.6742C33.5525 29.0258 33.75 29.5027 33.75 30V31.875Z" fill="#313A2D"/>
</svg>
