<svg xmlns="http://www.w3.org/2000/svg" enable-background="new 0 0 64 64" viewBox="0 0 64 64" id="register"><path d="M43.376,19.038l2.331-2.331c0.3906-0.3906,0.3906-1.0234,0-1.4141l-4-4c-0.3906-0.3906-1.0234-0.3906-1.4141,0L32.5859,19
		H21c-1.6543,0-3,1.3457-3,3v8c0,1.6543,1.3457,3,3,3h22c1.6543,0,3-1.3457,3-3v-8C46,20.4745,44.8514,19.2254,43.376,19.038z
		 M41,13.4141L43.5859,16L42,17.5859L39.4141,15L41,13.4141z M44,30c0,0.5518-0.4482,1-1,1H21c-0.5518,0-1-0.4482-1-1v-8
		c0-0.5518,0.4482-1,1-1h9.5859l-2.293,2.293C28.1055,23.4805,28,23.7344,28,24v4c0,0.5527,0.4473,1,1,1h4
		c0.2656,0,0.5195-0.1055,0.707-0.293L41.4141,21H43c0.5518,0,1,0.4482,1,1V30z"></path><path d="M59 5H5C3.3457 5 2 6.3457 2 8v38c0 1.6543 1.3457 3 3 3h17.5555l-1.7778 4h22.4445l-1.7778-4H59c1.6543 0 3-1.3457 3-3V8C62 6.3457 60.6543 5 59 5zM33 44.5c0 .2761-.2238.5-.5.5h-1c-.2761 0-.5-.2239-.5-.5v-1c0-.2762.2239-.5.5-.5h1c.2762 0 .5.2238.5.5V44.5zM60 39H4V8c0-.5513.4487-1 1-1h54c.5513 0 1 .4487 1 1V39zM46 59H18c-1.1046 0-2-.8954-2-2v0c0-1.1046.8954-2 2-2h28c1.1046 0 2 .8954 2 2v0C48 58.1046 47.1046 59 46 59z"></path></svg>