<svg width="45" height="45" viewBox="0 0 45 45" fill="none" xmlns="http://www.w3.org/2000/svg">
<path d="M39.5065 31.5562L35.6252 27.5812C34.7904 26.7876 33.7373 26.2618 32.6013 26.0714C31.4653 25.8809 30.2983 26.0345 29.2502 26.5125L27.5627 24.825C29.5513 22.168 30.4594 18.8563 30.1044 15.5565C29.7493 12.2568 28.1574 9.21415 25.6492 7.04098C23.1409 4.86781 19.9025 3.72553 16.5858 3.84408C13.2692 3.96263 10.1206 5.33321 7.77392 7.67992C5.42721 10.0266 4.05662 13.1752 3.93807 16.4919C3.81952 19.8085 4.9618 23.0469 7.13498 25.5552C9.30815 28.0634 12.3508 29.6553 15.6505 30.0104C18.9502 30.3654 22.2619 29.4573 24.919 27.4687L26.5877 29.1375C26.0535 30.1868 25.8621 31.3773 26.0404 32.5412C26.2186 33.7051 26.7577 34.7837 27.5815 35.625L31.5565 39.6C32.6112 40.6534 34.0408 41.245 35.5315 41.245C37.0221 41.245 38.4518 40.6534 39.5065 39.6C40.0422 39.0761 40.4679 38.4505 40.7586 37.7598C41.0492 37.0692 41.1989 36.3274 41.1989 35.5781C41.1989 34.8288 41.0492 34.087 40.7586 33.3964C40.4679 32.7057 40.0422 32.0801 39.5065 31.5562ZM23.6065 23.6062C22.2944 24.915 20.6239 25.8055 18.806 26.1653C16.9881 26.5251 15.1043 26.3381 13.3926 25.6278C11.6809 24.9176 10.2182 23.7159 9.18906 22.1747C8.15997 20.6335 7.61074 18.8219 7.61074 16.9687C7.61074 15.1155 8.15997 13.3039 9.18906 11.7627C10.2182 10.2215 11.6809 9.0199 13.3926 8.30963C15.1043 7.59936 16.9881 7.41232 18.806 7.77214C20.6239 8.13196 22.2944 9.02249 23.6065 10.3312C24.4795 11.2021 25.1722 12.2366 25.6448 13.3756C26.1175 14.5146 26.3607 15.7356 26.3607 16.9687C26.3607 18.2019 26.1175 19.4229 25.6448 20.5619C25.1722 21.7008 24.4795 22.7354 23.6065 23.6062ZM36.8627 36.8625C36.6884 37.0382 36.481 37.1777 36.2526 37.2729C36.0241 37.3681 35.779 37.4171 35.5315 37.4171C35.284 37.4171 35.0389 37.3681 34.8104 37.2729C34.5819 37.1777 34.3745 37.0382 34.2002 36.8625L30.2252 32.8875C30.0495 32.7132 29.91 32.5058 29.8148 32.2773C29.7196 32.0488 29.6706 31.8038 29.6706 31.5562C29.6706 31.3087 29.7196 31.0636 29.8148 30.8351C29.91 30.6067 30.0495 30.3993 30.2252 30.225C30.3995 30.0492 30.6069 29.9098 30.8354 29.8146C31.0639 29.7194 31.309 29.6704 31.5565 29.6704C31.804 29.6704 32.0491 29.7194 32.2776 29.8146C32.506 29.9098 32.7134 30.0492 32.8877 30.225L36.8627 34.2C37.0385 34.3743 37.178 34.5817 37.2731 34.8101C37.3683 35.0386 37.4174 35.2837 37.4174 35.5312C37.4174 35.7788 37.3683 36.0238 37.2731 36.2523C37.178 36.4808 37.0385 36.6882 36.8627 36.8625Z" fill="#313A2D"/>
</svg>
