<svg width="45" height="45" viewBox="0 0 45 45" fill="none" xmlns="http://www.w3.org/2000/svg">
<path d="M39.975 17.9063L36.4313 16.725L38.1 13.3875C38.2692 13.0382 38.3258 12.6449 38.2619 12.2621C38.1981 11.8792 38.0171 11.5256 37.7438 11.25L33.75 7.25626C33.4729 6.97892 33.1159 6.79539 32.7292 6.73149C32.3424 6.66759 31.9453 6.72652 31.5938 6.90001L28.2563 8.56876L27.075 5.02501C26.9503 4.65562 26.7135 4.3343 26.3976 4.10578C26.0817 3.87726 25.7024 3.7529 25.3125 3.75001H19.6875C19.2944 3.74899 18.911 3.87154 18.5913 4.10033C18.2717 4.32913 18.032 4.65259 17.9063 5.02501L16.725 8.56876L13.3875 6.90001C13.0382 6.73084 12.6449 6.67426 12.2621 6.73807C11.8792 6.80188 11.5256 6.98294 11.25 7.25626L7.25626 11.25C6.97892 11.5271 6.79539 11.8841 6.73149 12.2709C6.66759 12.6576 6.72652 13.0547 6.90001 13.4063L8.56876 16.7438L5.02501 17.925C4.65562 18.0498 4.3343 18.2866 4.10578 18.6025C3.87726 18.9184 3.7529 19.2976 3.75001 19.6875V25.3125C3.74899 25.7056 3.87154 26.089 4.10033 26.4087C4.32913 26.7283 4.65259 26.968 5.02501 27.0938L8.56876 28.275L6.90001 31.6125C6.73084 31.9618 6.67426 32.3551 6.73807 32.7379C6.80188 33.1208 6.98294 33.4744 7.25626 33.75L11.25 37.7438C11.5271 38.0211 11.8841 38.2046 12.2709 38.2685C12.6576 38.3324 13.0547 38.2735 13.4063 38.1L16.7438 36.4313L17.925 39.975C18.0508 40.3474 18.2904 40.6709 18.6101 40.8997C18.9297 41.1285 19.3132 41.251 19.7063 41.25H25.3313C25.7243 41.251 26.1078 41.1285 26.4274 40.8997C26.7471 40.6709 26.9867 40.3474 27.1125 39.975L28.2938 36.4313L31.6313 38.1C31.9784 38.2649 32.3678 38.3192 32.7467 38.2554C33.1257 38.1917 33.4759 38.0131 33.75 37.7438L37.7438 33.75C38.0211 33.4729 38.2046 33.1159 38.2685 32.7292C38.3324 32.3424 38.2735 31.9453 38.1 31.5938L36.4313 28.2563L39.975 27.075C40.3444 26.9503 40.6657 26.7135 40.8942 26.3976C41.1227 26.0817 41.2471 25.7024 41.25 25.3125V19.6875C41.251 19.2944 41.1285 18.911 40.8997 18.5913C40.6709 18.2717 40.3474 18.032 39.975 17.9063ZM37.5 23.9625L35.25 24.7125C34.7326 24.8803 34.2579 25.1587 33.8589 25.5283C33.4598 25.8979 33.1459 26.3499 32.939 26.853C32.7321 27.356 32.6371 27.898 32.6605 28.4415C32.684 28.9849 32.8255 29.5167 33.075 30L34.1438 32.1375L32.0813 34.2L30 33.075C29.5192 32.8354 28.9925 32.702 28.4556 32.6837C27.9187 32.6654 27.3841 32.7626 26.8881 32.9689C26.3921 33.1751 25.9461 33.4855 25.5805 33.8791C25.2148 34.2726 24.938 34.7402 24.7688 35.25L24.0188 37.5H21.0375L20.2875 35.25C20.1197 34.7326 19.8413 34.2579 19.4717 33.8589C19.1021 33.4598 18.6501 33.1459 18.147 32.939C17.644 32.7321 17.102 32.6371 16.5586 32.6605C16.0151 32.684 15.4833 32.8255 15 33.075L12.8625 34.1438L10.8 32.0813L11.925 30C12.1746 29.5167 12.316 28.9849 12.3395 28.4415C12.363 27.898 12.2679 27.356 12.061 26.853C11.8541 26.3499 11.5402 25.8979 11.1412 25.5283C10.7421 25.1587 10.2674 24.8803 9.75001 24.7125L7.50001 23.9625V21.0375L9.75001 20.2875C10.2674 20.1197 10.7421 19.8413 11.1412 19.4717C11.5402 19.1021 11.8541 18.6501 12.061 18.147C12.2679 17.644 12.363 17.102 12.3395 16.5586C12.316 16.0151 12.1746 15.4833 11.925 15L10.8563 12.9188L12.9188 10.8563L15 11.925C15.4833 12.1746 16.0151 12.316 16.5586 12.3395C17.102 12.363 17.644 12.2679 18.147 12.061C18.6501 11.8541 19.1021 11.5402 19.4717 11.1412C19.8413 10.7421 20.1197 10.2674 20.2875 9.75001L21.0375 7.50001H23.9625L24.7125 9.75001C24.8803 10.2674 25.1587 10.7421 25.5283 11.1412C25.8979 11.5402 26.3499 11.8541 26.853 12.061C27.356 12.2679 27.898 12.363 28.4415 12.3395C28.9849 12.316 29.5167 12.1746 30 11.925L32.1375 10.8563L34.2 12.9188L33.075 15C32.8354 15.4808 32.702 16.0075 32.6837 16.5444C32.6654 17.0813 32.7626 17.6159 32.9689 18.1119C33.1751 18.6079 33.4855 19.0539 33.8791 19.4195C34.2726 19.7852 34.7402 20.062 35.25 20.2313L37.5 20.9813V23.9625ZM22.5 15C21.0166 15 19.5666 15.4399 18.3332 16.264C17.0999 17.0881 16.1386 18.2594 15.5709 19.6299C15.0033 21.0003 14.8547 22.5083 15.1441 23.9632C15.4335 25.418 16.1478 26.7544 17.1967 27.8033C18.2456 28.8522 19.582 29.5665 21.0368 29.8559C22.4917 30.1453 23.9997 29.9968 25.3701 29.4291C26.7406 28.8614 27.9119 27.9002 28.736 26.6668C29.5601 25.4334 30 23.9834 30 22.5C30 20.5109 29.2098 18.6032 27.8033 17.1967C26.3968 15.7902 24.4891 15 22.5 15ZM22.5 26.25C21.7583 26.25 21.0333 26.0301 20.4166 25.618C19.7999 25.206 19.3193 24.6203 19.0355 23.9351C18.7516 23.2498 18.6774 22.4958 18.8221 21.7684C18.9668 21.041 19.3239 20.3728 19.8484 19.8484C20.3728 19.3239 21.041 18.9668 21.7684 18.8221C22.4958 18.6774 23.2498 18.7516 23.9351 19.0355C24.6203 19.3193 25.206 19.7999 25.618 20.4166C26.0301 21.0333 26.25 21.7583 26.25 22.5C26.25 23.4946 25.8549 24.4484 25.1517 25.1517C24.4484 25.8549 23.4946 26.25 22.5 26.25Z" fill="#313A2D"/>
</svg>
